<svg width="1320" height="1276" viewBox="0 0 1320 1276" fill="none" xmlns="http://www.w3.org/2000/svg">
<path d="M1048.8 801.033C1169.5 849.136 1234.76 985.759 1259.56 1050.82C1267.24 1071.1 1258.14 1093.83 1238.76 1103.33C1175.87 1133.52 1034.36 1187.94 914.223 1139.91C793.527 1091.8 728.263 955.18 703.464 890.124C695.779 869.838 704.881 847.111 724.259 837.608C787.079 807.981 928.664 753 1048.8 801.033Z" fill="#54BA54"/>
<path d="M255.426 801.035C134.73 849.138 69.4659 985.761 44.6659 1050.82C36.9815 1071.1 46.0839 1093.83 65.4617 1103.33C128.352 1133.52 269.866 1187.94 390.003 1139.91C510.699 1091.8 575.963 955.182 600.763 890.126C608.447 869.839 599.345 847.113 579.967 837.61C517.147 807.983 375.563 753.002 255.426 801.035Z" fill="#54BA54"/>
<path d="M894.014 953.279C894.014 1099.51 743.458 1223.06 683.122 1267.23C668.462 1277.98 648.726 1277.98 634.065 1267.23C573.73 1223.66 423.174 1099.51 423.174 953.279C423.174 807.046 573.73 683.494 634.065 639.325C648.726 628.582 668.462 628.582 683.122 639.325C743.458 682.897 894.014 807.046 894.014 953.279Z" fill="#67D367"/>
<path d="M1133.48 885.2C986.554 990.033 767.277 944.864 687.498 923.808C669.779 919.003 657.541 902.191 659.017 883.642C664.986 801.53 694.55 579.315 841.436 475.044C988.322 370.773 1207.64 415.379 1287.42 436.436C1305.14 441.24 1317.38 458.053 1315.9 476.602C1309.93 558.714 1280.37 780.929 1133.48 885.2Z" fill="#FC7C94"/>
<path d="M478.595 482.377C625.526 587.21 655.045 808.863 661.015 890.975C662.491 909.525 650.253 926.337 632.534 931.141C553.317 952.153 333.478 997.367 186.548 892.534C39.6169 787.701 10.0976 566.047 4.1283 483.936C2.65204 465.386 14.8899 448.574 32.6088 443.77C111.782 422.196 331.665 377.544 478.595 482.377Z" fill="#FC7C94"/>
<path d="M671.541 412.738C796.48 572.363 755.308 822.978 735.917 908.542C731.886 926.461 716.011 938.664 697.836 938.053C610.487 936.378 357.271 916.392 232.332 756.768C107.393 597.143 148.565 346.528 167.956 260.964C171.987 243.045 187.862 230.842 206.037 231.453C293.386 233.128 546.602 253.114 671.541 412.738Z" fill="#FF9FB6"/>
<path d="M663.137 412.687C538.198 572.311 579.37 822.927 598.761 908.49C602.792 926.41 618.667 938.613 636.842 938.002C724.191 936.326 977.407 916.341 1102.91 756.767C1228.41 597.194 1186.67 346.528 1167.28 260.964C1163.25 243.045 1147.38 230.842 1129.2 231.452C1041.29 233.077 788.127 252.501 663.137 412.687Z" fill="#FF9FB6"/>
<path d="M959.988 473.818C959.988 689.531 769.96 872.368 694.401 936.389C676.92 951.386 651.546 951.386 633.501 936.389C557.942 872.368 367.914 689.531 367.914 473.818C367.914 258.105 557.942 75.2688 633.501 11.2471C650.982 -3.74903 676.356 -3.74903 694.401 11.2471C769.96 75.8455 959.988 258.682 959.988 473.818Z" fill="#FFBDCA"/>
</svg>
